<svg width="224" height="216" viewBox="0 0 224 216" fill="none" xmlns="http://www.w3.org/2000/svg">
<path d="M19.2343 130.078C19.2343 131.25 18.2968 132.234 17.078 132.234C15.9061 132.234 14.9218 131.25 14.9218 130.078C14.9218 128.906 15.8593 127.922 17.078 127.922C18.2968 127.969 19.2343 128.906 19.2343 130.078Z" fill="#59BCAB"/>
<path d="M5.828 129.516C2.828 129.516 0.390503 127.078 0.390503 124.078C0.390503 121.078 2.828 118.641 5.828 118.641C8.828 118.641 11.2655 121.078 11.2655 124.078C11.2655 127.078 8.828 129.516 5.828 129.516ZM5.828 121.5C4.37488 121.5 3.24988 122.672 3.24988 124.078C3.24988 125.484 4.42175 126.656 5.828 126.656C7.28113 126.656 8.40613 125.484 8.40613 124.078C8.40613 122.672 7.28113 121.5 5.828 121.5Z" fill="#FCC450"/>
<path d="M162.156 23.1563H160.375V24.9844C160.375 25.8281 159.719 26.4844 158.875 26.4844C158.031 26.4844 157.375 25.8281 157.375 24.9844V23.1563H155.547C154.703 23.1563 154.047 22.5 154.047 21.6563C154.047 20.8125 154.703 20.1562 155.547 20.1562H157.375V18.3281C157.375 17.4844 158.031 16.8281 158.875 16.8281C159.719 16.8281 160.375 17.4844 160.375 18.3281V20.1562H162.203C163.047 20.1562 163.703 20.8125 163.703 21.6563C163.656 22.5 163 23.1563 162.156 23.1563Z" fill="#59BCAB"/>
<path d="M176.875 13.6875C176.875 14.8594 175.937 15.8438 174.719 15.8438C173.547 15.8438 172.562 14.9062 172.562 13.6875C172.562 12.5156 173.547 11.5312 174.719 11.5312C175.891 11.5313 176.875 12.4687 176.875 13.6875Z" fill="#345185"/>
<path d="M65.9219 61.9219C59.4531 45.7031 62.7812 26.5312 75.9062 13.4062C82.2344 7.07813 89.9687 3 98.125 1.26562L102.953 23.1562C92.7812 25.3594 85.1875 34.4062 85.1875 45.2344C85.1875 48.1875 85.75 51 86.7812 53.625L65.9219 61.9219Z" fill="#345185"/>
<path d="M75.9062 77.0625C75.5781 76.7344 75.2031 76.3594 74.8749 75.9844L91.2343 60.6562C95.3593 65.0625 101.219 67.7812 107.734 67.7812C120.203 67.7812 130.328 57.6562 130.328 45.1875C130.328 36.2812 125.219 28.5938 117.719 24.9375L127.656 4.82812C131.969 6.9375 136 9.79687 139.562 13.3594C157.141 30.9375 157.141 59.4844 139.562 77.0625C122.031 94.6406 93.4843 94.6406 75.9062 77.0625Z" fill="white"/>
<path d="M107.781 22.6405C106.094 22.6405 104.5 22.828 102.953 23.1562L98.172 1.26554C108.016 -0.890713 118.469 0.281162 127.703 4.87491L117.766 24.9843C114.766 23.4374 111.344 22.6405 107.781 22.6405Z" fill="#59BCAB"/>
<path d="M74.875 75.9844C70.9375 71.7656 67.9375 66.9844 65.9219 61.9219L86.7812 53.625C87.8125 56.25 89.3594 58.6406 91.2812 60.7031L74.875 75.9844Z" fill="#C1E4EE"/>
<path d="M210.391 35.2031V186.047C210.391 188.578 208.328 190.641 205.797 190.641H109.328C106.797 190.641 104.734 188.578 104.734 186.047V35.2031C104.734 32.6719 106.797 30.5625 109.328 30.5625H205.75C208.328 30.5625 210.391 32.625 210.391 35.2031Z" fill="#4FBECB"/>
<path d="M94.0935 194.953H221.031C222.203 194.953 223.187 194.016 223.187 192.797C223.187 191.625 222.25 190.641 221.031 190.641H94.0935C92.9216 190.641 91.9373 191.578 91.9373 192.797C91.9373 194.016 92.9216 194.953 94.0935 194.953Z" fill="#E2E2E1"/>
<path d="M210.391 35.1563V46.4062H104.734V35.1563C104.734 32.625 106.797 30.5156 109.328 30.5156H205.75C208.328 30.5625 210.391 32.625 210.391 35.1563Z" fill="#4FBECB"/>
<path d="M157.562 186.656C155.172 186.656 153.25 184.734 153.25 182.344C153.25 179.953 155.172 178.031 157.562 178.031C159.953 178.031 161.875 179.953 161.875 182.344C161.922 184.734 159.953 186.656 157.562 186.656Z" fill="#E6F2EA"/>
<path d="M116.922 40.125C115.937 40.125 115.14 39.3281 115.14 38.3438C115.14 37.3594 115.937 36.5625 116.922 36.5625C117.906 36.5625 118.703 37.3594 118.703 38.3438C118.656 39.3281 117.859 40.125 116.922 40.125Z" fill="#E6F2EA"/>
<path d="M122.5 40.125C121.515 40.125 120.719 39.3281 120.719 38.3438C120.719 37.3594 121.515 36.5625 122.5 36.5625C123.484 36.5625 124.281 37.3594 124.281 38.3438C124.281 39.3281 123.484 40.125 122.5 40.125Z" fill="#E6F2EA"/>
<path d="M208.75 46.4062H106.375V173.391H208.75V46.4062Z" fill="#D2EBF7"/>
<path d="M124.699 88.9688V73.9219H90.8085V88.9688H124.699Z" fill="#A9DAE5"/>
<path d="M145.38 127.258V112.211H111.49V127.258H145.38Z" fill="#A9DAE5"/>
<path d="M135.063 108.137V93.0903H101.173V108.137H135.063Z" fill="#A9DAE5"/>
<path d="M202.891 51.75H111.484V68.8594H202.891V51.75Z" fill="#EDF6F4"/>
<path d="M200.125 54.1875H187.984V66.3281H200.125V54.1875Z" fill="#D2E8F2"/>
<path d="M143.687 54.9375H117.39V57.2812H143.687V54.9375Z" fill="#ACD8C8"/>
<path d="M143.687 59.1094H117.39V61.4531H143.687V59.1094Z" fill="#ACD8C8"/>
<path d="M135.109 63.2812H117.39V65.625H135.109V63.2812Z" fill="#ACD8C8"/>
<path opacity="0.5" d="M220.14 124.828H145.375V159.938H220.14V124.828Z" fill="#96CEB8"/>
<path d="M182.172 136.969H152.828V139.922H182.172V136.969Z" fill="#E6F2EA"/>
<path d="M175.187 142.219H152.828V145.172H175.187V142.219Z" fill="#E6F2EA"/>
<path d="M167.922 147.516H152.828V150.469H167.922V147.516Z" fill="#E6F2EA"/>
<path d="M178.797 147.516H169.797V150.469H178.797V147.516Z" fill="#E6F2EA"/>
<path d="M173.219 152.766H152.828V155.719H173.219V152.766Z" fill="#E6F2EA"/>
<path d="M138.484 132.891H111.484V159.891H138.484V132.891Z" fill="#9FD2BA"/>
<path d="M130.955 152.447C134.25 149.152 134.25 143.809 130.955 140.514C127.66 137.219 122.318 137.219 119.023 140.514C115.728 143.809 115.728 149.152 119.023 152.447C122.318 155.742 127.66 155.742 130.955 152.447Z" fill="#7CC39E"/>
<path d="M131.406 146.484C131.406 148.594 130.375 150.469 128.781 151.641C128.313 151.969 127.797 152.297 127.234 152.484C127 152.578 126.719 152.672 126.484 152.719C126.344 152.766 126.156 152.766 126.016 152.813C125.688 152.859 125.359 152.906 125.031 152.906C124.375 152.906 123.719 152.813 123.109 152.625C120.484 151.828 118.609 149.391 118.609 146.484C118.609 145.5 118.844 144.516 119.266 143.672C119.781 142.641 120.531 141.75 121.469 141.141C121.703 141 121.938 140.859 122.172 140.719C122.688 140.437 123.25 140.25 123.859 140.156C124.234 140.063 124.656 140.062 125.031 140.062C127.75 140.062 130.094 141.75 130.984 144.141C131.219 144.891 131.406 145.641 131.406 146.484Z" fill="#EFF4F4"/>
<path d="M124.984 147.234C124.563 147.234 124.234 146.906 124.234 146.484V142.359C124.234 141.937 124.563 141.609 124.984 141.609C125.406 141.609 125.734 141.937 125.734 142.359V146.484C125.734 146.906 125.406 147.234 124.984 147.234Z" fill="#C1D6CF"/>
<path d="M124.984 147.234C124.75 147.234 124.516 147.094 124.375 146.906C124.141 146.578 124.281 146.109 124.609 145.875L126.719 144.516C127.047 144.281 127.516 144.422 127.75 144.75C127.984 145.078 127.844 145.547 127.516 145.781L125.406 147.141C125.266 147.187 125.125 147.234 124.984 147.234Z" fill="#C1D6CF"/>
<path d="M202.89 73.9219H149.547V127.266H202.89V73.9219Z" fill="#98D5E9"/>
<path d="M176.219 102.984C172.469 102.984 169.422 99.9375 169.422 96.1875V92.1094C169.422 88.3594 172.469 85.3125 176.219 85.3125C179.969 85.3125 183.015 88.3594 183.015 92.1094V96.1875C183.015 99.9375 179.969 102.984 176.219 102.984Z" fill="#F8FCFA"/>
<path d="M176.219 99.5156C169.797 99.5156 164.312 103.266 161.734 108.703C160.234 111.891 162.531 115.547 166.047 115.547H186.437C189.953 115.547 192.25 111.891 190.75 108.703C188.172 103.266 182.64 99.5156 176.219 99.5156Z" fill="#F8FCFA"/>
<path d="M202.88 166.057V161.697L111.474 161.697V166.057L202.88 166.057Z" fill="#FFE1AB"/>
<path d="M209.734 72.1875V56.2969C210.859 56.2969 211.797 57.2344 211.797 58.3594V70.1719C211.797 71.2969 210.859 72.1875 209.734 72.1875Z" fill="#4FBECB"/>
<path d="M209.734 89.9531V74.0625C210.859 74.0625 211.797 75 211.797 76.125V87.9375C211.797 89.0156 210.859 89.9531 209.734 89.9531Z" fill="#4FBECB"/>
<path opacity="0.3" d="M165.765 46.4062L106.375 105.797V73.875L133.844 46.4062H165.765Z" fill="#F6FBFD"/>
<path opacity="0.3" d="M187.984 46.4062L106.375 128.016V112.078L172.047 46.4062H187.984Z" fill="#F6FBFD"/>
<path opacity="0.3" d="M127.562 137.813V151.5C127.562 152.062 127.187 152.578 126.672 152.719V190.594H109.375C106.844 190.594 104.781 188.531 104.781 186V109.922H123.484C125.265 109.922 126.672 111.375 126.672 113.109V136.594C127.187 136.781 127.562 137.25 127.562 137.813Z" fill="#385F82"/>
<path d="M114.391 103.594V208.313C114.391 210.094 112.938 211.5 111.203 211.5H56.2188C54.4844 211.5 53.0312 210.094 53.0312 208.313V103.594C53.0312 101.813 54.4844 100.406 56.2188 100.406H111.156C112.938 100.406 114.391 101.813 114.391 103.594Z" fill="#5BB98E"/>
<path d="M114.391 103.594V111.422H53.0312V103.594C53.0312 101.813 54.4844 100.406 56.2188 100.406H111.203C112.938 100.406 114.391 101.859 114.391 103.594Z" fill="#5BB98E"/>
<path d="M83.6875 208.781C82.0469 208.781 80.6875 207.422 80.6875 205.781C80.6875 204.141 82.0469 202.781 83.6875 202.781C85.3281 202.781 86.6875 204.141 86.6875 205.781C86.6875 207.422 85.375 208.781 83.6875 208.781Z" fill="#E6F2EA"/>
<path d="M72.5781 107.016C71.9218 107.016 71.3593 106.453 71.3593 105.797C71.3593 105.141 71.9218 104.578 72.5781 104.578C73.2343 104.578 73.7968 105.141 73.7968 105.797C73.7968 106.5 73.2812 107.016 72.5781 107.016Z" fill="#E6F2EA"/>
<path d="M89.8749 106.266H77.7343C77.4999 106.266 77.2655 106.078 77.2655 105.797C77.2655 105.516 77.453 105.328 77.7343 105.328H89.8749C90.1093 105.328 90.3436 105.516 90.3436 105.797C90.3436 106.078 90.1093 106.266 89.8749 106.266Z" fill="#E6F2EA"/>
<path d="M113.219 111.422H54.1563V199.594H113.219V111.422Z" fill="#D2EBF7"/>
<path d="M69.625 158.297H58.8906V161.672H69.625V158.297Z" fill="#EDF6F4"/>
<path d="M96.9532 158.297H86.2189V161.672H96.9532V158.297Z" fill="#EDF6F4"/>
<path d="M83.2656 158.297H72.5312V161.672H83.2656V158.297Z" fill="#EDF6F4"/>
<path d="M108.578 164.438H65.3595V176.297H108.578V164.438Z" fill="#EDF6F4"/>
<path d="M106.656 166.125H98.2188V174.562H106.656V166.125Z" fill="#D5EAE4"/>
<path d="M81.3906 166.641H63.1094V168.281H81.3906V166.641Z" fill="#ACD8C8"/>
<path d="M81.3906 169.547H63.1094V171.188H81.3906V169.547Z" fill="#ACD8C8"/>
<path d="M75.3906 172.453H63.1094V174.094H75.3906V172.453Z" fill="#ACD8C8"/>
<path d="M90.578 179.25H58.9843V194.062H90.578V179.25Z" fill="#EDF6F4"/>
<path d="M79.2344 181.5H63.1094V183.141H79.2344V181.5Z" fill="#FFE1AB"/>
<path d="M75.3906 184.359H63.1094V186H75.3906V184.359Z" fill="#FFE1AB"/>
<path d="M71.4062 187.266H63.1094V188.906H71.4062V187.266Z" fill="#FFE1AB"/>
<path d="M77.3591 187.266H72.4373V188.906H77.3591V187.266Z" fill="#ACD8C8"/>
<path d="M74.3125 190.172H63.1094V191.812H74.3125V190.172Z" fill="#FFE1AB"/>
<path opacity="0.5" d="M96.9999 116.906H50.4999V154.828H96.9999V116.906Z" fill="#FFE1AB"/>
<path d="M78.0156 147.891C84.5913 147.891 89.9219 142.56 89.9219 135.984C89.9219 129.409 84.5913 124.078 78.0156 124.078C71.44 124.078 66.1094 129.409 66.1094 135.984C66.1094 142.56 71.44 147.891 78.0156 147.891Z" fill="#FCC450"/>
<path d="M87.0155 135.984C87.0155 138.984 85.5624 141.609 83.3593 143.25C82.703 143.719 81.953 144.141 81.1561 144.422C80.828 144.563 80.453 144.656 80.078 144.75C79.8436 144.797 79.6093 144.844 79.4218 144.891C78.953 144.984 78.4843 144.984 78.0155 144.984C77.078 144.984 76.1874 144.844 75.3436 144.563C71.6874 143.438 69.0155 139.969 69.0155 135.938C69.0155 134.531 69.3436 133.219 69.9061 132C70.6093 130.547 71.6874 129.281 73.0467 128.391C73.3749 128.156 73.703 127.969 74.0311 127.828C74.7811 127.453 75.578 127.172 76.3749 127.031C76.9374 126.938 77.453 126.891 78.0155 126.891C81.8593 126.891 85.1405 129.281 86.4061 132.656C86.828 133.734 87.0155 134.859 87.0155 135.984Z" fill="#EFF4F4"/>
<path d="M78.0155 137.063C77.453 137.063 76.9843 136.594 76.9843 136.031V130.266C76.9843 129.703 77.453 129.234 78.0155 129.234C78.578 129.234 79.0468 129.703 79.0468 130.266V136.031C79.0468 136.594 78.578 137.063 78.0155 137.063Z" fill="#C1D6CF"/>
<path d="M78.0155 137.063C77.6874 137.063 77.3124 136.875 77.1249 136.594C76.7968 136.125 76.9843 135.469 77.453 135.141L80.453 133.266C80.9218 132.938 81.578 133.125 81.9062 133.594C82.2343 134.063 82.0468 134.719 81.578 135.047L78.578 136.922C78.3905 137.016 78.203 137.063 78.0155 137.063Z" fill="#C1D6CF"/>
<path opacity="0.3" d="M95.4062 111.422L54.1562 152.625V130.5L73.2344 111.422H95.4062Z" fill="#F6FBFD"/>
<path opacity="0.3" d="M110.828 111.422L54.1562 168.094V156.984L99.7188 111.422H110.828Z" fill="#F6FBFD"/>
<g opacity="0.7">
<path opacity="0.7" d="M116.641 179.25H93.7656V202.125H116.641V179.25Z" fill="#9FD2BA"/>
<path opacity="0.7" d="M105.156 191.719C103.562 191.719 102.25 190.406 102.25 188.812V187.078C102.25 185.484 103.562 184.172 105.156 184.172C106.75 184.172 108.062 185.484 108.062 187.078V188.812C108.109 190.406 106.797 191.719 105.156 191.719Z" fill="#F8FCFA"/>
<path opacity="0.7" d="M105.156 190.219C102.391 190.219 100.047 191.812 98.9218 194.156C98.2655 195.516 99.2499 197.109 100.75 197.109H109.469C110.969 197.109 111.953 195.516 111.297 194.156C110.312 191.812 107.922 190.219 105.156 190.219Z" fill="#F8FCFA"/>
</g>
<path d="M107.969 116.906H101.172V161.672H107.969V116.906Z" fill="#9FD2BA"/>
<path d="M113.922 143.344V126.984C114.672 126.984 115.281 127.594 115.281 128.344V142.031C115.281 142.734 114.672 143.344 113.922 143.344Z" fill="#5BB98E"/>
<path opacity="0.3" d="M72.8593 100.406L67.2343 116.906L54.2968 154.828L53.0311 158.578V154.828H50.5468V116.906H53.0311V103.594C53.0311 101.813 54.4843 100.406 56.2186 100.406H72.8593Z" fill="#385F82"/>
<path d="M22.4218 215.812H123.016C124.187 215.812 125.172 214.875 125.172 213.656C125.172 212.484 124.234 211.5 123.016 211.5H22.4218C21.2499 211.5 20.2656 212.438 20.2656 213.656C20.3124 214.875 21.2499 215.812 22.4218 215.812Z" fill="#E2E2E1"/>
</svg>
