<svg width="232" height="236" viewBox="0 0 232 236" fill="none" xmlns="http://www.w3.org/2000/svg">
<path d="M85.8595 45.4844C81.172 47.4531 63.0313 55 52.9063 74.5469C50.7501 78.7187 40.6251 98.2656 48.0782 115.516C57.9688 138.391 88.0626 132.812 101.891 154.328C113.75 172.844 89.1407 191.031 99.7345 213.062C105.266 224.547 118.016 234.156 129.781 235.047C166.578 237.812 232.672 158.547 205.813 96.3437C186.219 51.1562 123.781 29.6875 85.8595 45.4844Z" fill="url(#paint0_linear_195_1155)"/>
<path d="M160.859 81.0156L93.125 55.8906C91.0625 55.1406 88.8125 56.1718 88.0625 58.2343L42.3125 181.375C41.5625 183.437 42.5937 185.687 44.6562 186.437L112.391 211.562C114.453 212.312 116.703 211.281 117.453 209.219L163.203 86.0312C163.953 84.0156 162.922 81.7656 160.859 81.0156Z" fill="#2D548D"/>
<path opacity="0.09" d="M120.266 144.109C118.578 144.109 116.844 144.062 115.063 143.969C88.7656 142.516 67.2969 130.797 57.6406 112.656C42.2188 83.6874 57.3594 43.3281 80.5625 30.6249C92.2813 24.1562 102.453 24.3437 108.922 25.6562C119.984 27.8593 128.141 32.9687 131.891 39.9999C135.922 47.5468 133.766 54.6249 131.469 62.078C129.406 68.7812 127.297 75.6718 129.828 83.1249C132.078 89.7812 137.938 91.8437 144.172 94.0468C150.5 96.2968 157.063 98.5937 160.578 105.859C164.281 113.547 163.813 124.047 159.547 130.375C153.734 138.812 138.359 144.109 120.266 144.109ZM101.609 25.4687C95.8438 25.4687 88.6719 26.7812 80.8438 31.0937C57.875 43.7031 42.875 83.7343 58.1563 112.422C67.7188 130.422 89.0469 142 115.156 143.453C135.219 144.578 152.891 139.187 159.125 130.094C163.297 123.953 163.766 113.641 160.109 106.141C156.688 99.0624 150.266 96.8124 144.031 94.6093C137.703 92.3593 131.703 90.2499 129.359 83.3593C126.781 75.7187 128.938 68.7343 131 61.9374C133.25 54.578 135.406 47.5937 131.469 40.2343C127.813 33.3437 119.75 28.3281 108.875 26.1718C106.766 25.7499 104.328 25.4687 101.609 25.4687Z" fill="#AAAAD5"/>
<path opacity="0.2" d="M144.453 74.9219L136.953 79.9375L71.4688 123.906L61.1094 130.891L75.3594 92.4062L85.7657 85.4219L109.25 69.625L116.75 64.6094L144.453 74.9219Z" fill="#EEEDF3"/>
<path opacity="0.2" d="M159.359 80.4531L151.859 85.4688L63.7813 144.625L53.3751 151.563L58.4376 138.016L68.7969 131.078V131.031L142.109 81.8594L149.609 76.7969L159.359 80.4531Z" fill="#EEEDF3"/>
<path d="M160.859 81.0156L159.359 80.4531L149.609 76.8437L144.453 74.9218L116.75 64.6562L93.1249 55.8906C91.1093 55.1406 88.8124 56.1718 88.0624 58.2343L75.3593 92.4531L61.0624 130.937L58.3905 138.109L53.3749 151.656L42.3124 181.469C42.1718 181.844 42.1249 182.219 42.078 182.594C41.9374 184.281 42.9686 185.922 44.6561 186.531L57.2186 191.219L66.6874 194.734L91.7186 204.016L100.859 207.391L112.391 211.656C114.406 212.406 116.703 211.375 117.453 209.359L162.359 88.4218L163.203 86.1718C163.953 84.0156 162.922 81.7656 160.859 81.0156ZM154.437 88.6562L153.5 91.2343L114.828 195.437C114.406 196.516 113.187 197.125 112.062 196.703L103.578 193.562L93.3124 189.766L72.1249 181.891L62.4218 178.281L54.6874 175.422C53.8436 175.094 53.328 174.344 53.328 173.5C53.328 173.219 53.328 172.937 53.4686 172.656L63.8749 144.672L68.8905 131.125L71.5624 123.953L85.8593 85.4687L93.1249 65.9218C93.5468 64.8437 94.7655 64.2343 95.8436 64.6562L109.344 69.6718L137.047 79.9375L142.203 81.8593L151.953 85.4687L153.219 85.9375C154.297 86.3593 154.859 87.5781 154.437 88.6562Z" fill="#EEEDF3"/>
<path d="M76.6249 193.937C74.703 193.234 73.7186 191.078 74.4217 189.156C75.1249 187.234 77.2811 186.25 79.203 186.953C81.1248 187.656 82.1092 189.812 81.4061 191.734C80.6561 193.703 78.4999 194.641 76.6249 193.937Z" fill="#C9C7D9"/>
<path opacity="0.1" d="M121.906 8.3593L27.3594 39.6718C25.0625 40.4218 23.8437 42.9062 24.5937 45.1562L33.7812 72.8124C34.5312 75.1093 37.0156 76.3281 39.2656 75.5781L48.5937 72.4843L53.1406 70.9843C54.3125 71.7343 57.2187 73.7031 58.3906 74.4062C59.4687 75.0156 60.875 74.5468 61.3906 73.4218C61.9531 72.1562 63.125 68.8749 63.5937 67.5624L86.5625 59.9218L133.812 44.2656C136.109 43.5156 137.328 41.0312 136.578 38.7812L127.391 11.1249C126.641 8.82805 124.203 7.6093 121.906 8.3593Z" fill="#3F3F3F"/>
<path d="M121.906 1.04686L20.4687 34.6562C18.0312 35.4531 16.7187 38.125 17.5156 40.5625L27.3593 70.2344C28.1562 72.6719 30.828 73.9844 33.2655 73.1875L43.2499 69.8594L48.1249 68.2656C49.3437 69.1094 52.4843 71.1719 53.7499 71.9219C54.8749 72.5781 56.4218 72.0625 56.9843 70.8437C57.5468 69.4844 58.8593 65.9219 59.3281 64.5625L83.9843 56.4062L134.703 39.5781C137.141 38.7812 138.453 36.1094 137.656 33.6719L127.812 3.99999C127.016 1.56249 124.391 0.249987 121.906 1.04686Z" fill="url(#paint1_linear_195_1155)"/>
<path d="M46.1561 48.5781C46.8592 47.3594 47.0467 45.8594 46.5779 44.4062L45.7811 42.0156C44.8904 39.3437 42.0779 37.7031 39.3592 38.5C36.5467 39.3437 35.0467 42.2969 35.9373 45.0625L36.7811 47.6875C37.2498 49.1406 38.3279 50.2187 39.5936 50.7812C36.6873 52.9844 34.9998 56.5 35.2342 60.2031C35.3279 61.6562 36.7811 62.5469 38.1404 62.125L53.9842 56.875C55.3436 56.4062 55.9529 54.8125 55.2029 53.5937C53.2342 50.4062 49.8123 48.5781 46.1561 48.5781Z" fill="white"/>
<path d="M84.3124 23.5468L64.1093 30.25C62.4686 30.8125 61.578 32.5937 62.0936 34.2343L65.3749 44.1718C65.9374 45.8124 67.7186 46.7031 69.3593 46.1875L71.328 45.5312C71.328 45.5312 75.078 48.0624 76.3436 48.8124C77.2811 49.3281 78.5468 48.9531 78.9686 47.9218C79.578 46.5624 81.078 42.2968 81.078 42.2968L89.5624 39.4843C91.203 38.9218 92.0936 37.1406 91.578 35.4999L88.2968 25.5624C87.7343 23.8749 85.953 22.9843 84.3124 23.5468Z" fill="white"/>
<path d="M67.6248 34.8437C66.9686 34.9843 66.2654 34.6562 66.0779 33.9999C65.8436 33.2968 66.2186 32.5468 66.9217 32.3593L83.3279 26.9218C83.9842 26.6874 84.7811 27.0624 84.9686 27.7656C85.2029 28.4687 84.8279 29.2187 84.1248 29.4062L67.7186 34.8437C67.6717 34.8437 67.6717 34.8437 67.6248 34.8437Z" fill="#E2E1E1"/>
<path d="M69.0311 39.1562C68.3748 39.2968 67.6717 38.9687 67.4842 38.3124C67.2498 37.6093 67.6248 36.8593 68.3279 36.6718L84.7342 31.2343C85.3904 30.9999 86.1873 31.3749 86.3748 32.0781C86.6092 32.7812 86.2342 33.5312 85.5311 33.7187L69.1248 39.1562C69.1248 39.1093 69.0779 39.1562 69.0311 39.1562Z" fill="#E2E1E1"/>
<path d="M70.4844 43.4218C69.8281 43.5624 69.125 43.2343 68.9375 42.5781C68.7031 41.8749 69.0781 41.1249 69.7812 40.9374L77.1875 38.4999C77.8437 38.2656 78.5937 38.6406 78.8281 39.3437C79.0625 40.0468 78.6875 40.7968 77.9844 40.9843L70.5781 43.4218C70.5312 43.4218 70.5312 43.4218 70.4844 43.4218Z" fill="#E2E1E1"/>
<path d="M126.406 28.2343C125.75 26.2187 124.438 24.5312 122.844 23.4062L122.141 21.2499C120.922 17.6406 117.359 15.5312 113.703 16.0468L113.516 15.4374C113.281 14.7343 112.531 14.3593 111.828 14.5937C111.125 14.8281 110.75 15.5781 110.984 16.2812L111.172 16.8906C107.938 18.6249 106.344 22.4687 107.516 26.0781L108.219 28.2343C107.609 30.1093 107.563 32.2187 108.219 34.2343L108.547 35.1718C108.688 35.6406 109.203 35.9218 109.672 35.7343L113.281 34.5156C113.328 34.7968 113.469 35.0781 113.797 35.1718C115.297 35.6874 116.984 35.6874 118.625 35.1718C120.266 34.6562 121.578 33.6249 122.516 32.3124C122.703 32.0312 122.703 31.7031 122.563 31.4687L126.172 30.2499C126.641 30.1093 126.922 29.5937 126.734 29.1249L126.406 28.2343Z" fill="white"/>
<path d="M111.031 34.1875C111.734 36.2969 110.563 38.6406 108.453 39.3438C106.344 40.0469 104 38.875 103.297 36.7656C102.594 34.6563 103.766 32.3125 105.875 31.6094C108.031 30.9063 110.328 32.0313 111.031 34.1875Z" fill="#E83C3B"/>
<path opacity="0.1" d="M223.906 88L197.984 84.9062C196.859 84.7656 195.875 85.5625 195.734 86.6875L192.641 112.609C192.5 113.734 193.297 114.719 194.422 114.859L220.344 117.953C221.469 118.094 222.453 117.297 222.594 116.172L225.687 90.25C225.828 89.1719 225.031 88.1406 223.906 88Z" fill="#3F3F3F"/>
<path d="M226.953 114.344L196.672 110.734C196.156 110.688 195.781 110.219 195.875 109.703L199.484 79.4219C199.531 78.9063 200 78.5313 200.515 78.625L230.797 82.2344C231.312 82.2813 231.687 82.75 231.594 83.2656L227.984 113.547C227.937 114.016 227.469 114.391 226.953 114.344Z" fill="#F8AA09"/>
<path d="M199.109 107.406L202.109 82.3281C202.156 82 202.437 81.8125 202.719 81.8125L227.797 84.8125C228.125 84.8594 228.312 85.1406 228.312 85.4219L225.312 110.5C225.266 110.828 224.984 111.016 224.703 111.016L199.625 108.016C199.297 108.016 199.109 107.734 199.109 107.406Z" fill="#FBBA38"/>
<path d="M214.344 98.5938L211.437 100.891C210.922 101.313 210.125 101.219 209.703 100.703C209.281 100.188 208.531 100.094 207.969 100.516L203.703 103.891C202.859 104.547 203.234 105.953 204.312 106.094L204.828 106.141L214.906 107.359L220.578 108.016C221.656 108.156 222.359 106.891 221.703 106.047L216.078 98.7813C215.656 98.2657 214.859 98.1719 214.344 98.5938Z" fill="#EE9F05"/>
<path d="M209.14 93.7187C209 94.8906 207.922 95.7343 206.75 95.5937C205.578 95.4531 204.734 94.3749 204.875 93.2031C205.015 92.0312 206.093 91.1874 207.265 91.3281C208.437 91.4687 209.281 92.5468 209.14 93.7187Z" fill="#EE9F05"/>
<path opacity="0.1" d="M60.0313 161.547C59.0469 158.406 55.7188 156.672 52.5781 157.656L14.3281 169.75C11.1875 170.734 9.45315 174.063 10.4375 177.203L18.3125 202.094C19.2969 205.234 22.625 206.969 25.7656 205.984L29.5156 204.813C29.5156 204.813 36.5 209.641 38.9375 211.094C40.6719 212.125 43.0625 211.375 43.9063 209.5C45.0781 206.922 47.9844 198.953 47.9844 198.953L64.0157 193.891C67.1563 192.906 68.8906 189.578 67.9063 186.438L60.0313 161.547Z" fill="#3F3F3F"/>
<path d="M45.9687 151.984L4.95312 164.969C1.57812 166.047 -0.250008 169.609 0.781242 172.984L9.21874 199.703C10.2969 203.078 13.8594 204.906 17.2344 203.875L21.2187 202.609C21.2187 202.609 28.7187 207.813 31.2969 209.359C33.1719 210.484 35.75 209.641 36.6406 207.672C37.9062 204.906 41 196.328 41 196.328L58.2031 190.891C61.5781 189.813 63.4062 186.25 62.375 182.875L53.9375 156.156C52.9531 152.781 49.3437 150.906 45.9687 151.984Z" fill="url(#paint2_linear_195_1155)"/>
<path d="M46.1094 165.813L12.8281 176.359C11.75 176.688 10.5781 176.125 10.25 175C9.92189 173.922 10.5313 172.75 11.6094 172.422L44.8906 161.875C45.9688 161.547 47.1406 162.109 47.4688 163.234C47.7969 164.313 47.1875 165.484 46.1094 165.813Z" fill="#EDB7D5"/>
<path d="M49.0624 175.234L15.7811 185.781C14.703 186.109 13.5311 185.547 13.203 184.422C12.8749 183.344 13.4843 182.172 14.5624 181.844L47.8436 171.297C48.9218 170.969 50.0936 171.531 50.4218 172.656C50.7499 173.688 50.1405 174.859 49.0624 175.234Z" fill="#EDB7D5"/>
<path d="M33.7811 190.375L18.7811 195.109C17.703 195.437 16.5311 194.828 16.203 193.75C15.8749 192.672 16.4843 191.5 17.5624 191.172L32.5624 186.437C33.6405 186.109 34.8124 186.719 35.1405 187.797C35.4686 188.875 34.8593 190.047 33.7811 190.375Z" fill="#EDB7D5"/>
<path opacity="0.1" d="M129.828 105.438C129.266 103.047 126.078 102.531 124.766 104.641L119.516 113.125L116.563 100.797C115.953 98.3125 113.469 96.7656 110.984 97.375L77.0938 105.438C74.6094 106.047 73.0626 108.531 73.6719 111.016L81.7344 144.906C82.3438 147.391 84.8282 148.938 87.3126 148.328L121.203 140.266C123.688 139.656 125.234 137.172 124.625 134.688L121.672 122.359L130.156 127.609C132.266 128.922 134.891 127 134.281 124.609L129.828 105.438Z" fill="#3F3F3F"/>
<path d="M128.797 95.4063L123.172 104.547L120.031 91.3282C119.375 88.6563 116.703 87.0157 114.031 87.625L77.6564 96.2969C74.9845 96.9532 73.3439 99.625 73.9533 102.297L82.6252 138.672C83.2814 141.344 85.9533 142.984 88.6252 142.375L125 133.703C127.672 133.047 129.313 130.375 128.703 127.703L125.563 114.484L134.703 120.109C136.953 121.516 139.766 119.453 139.156 116.875L134.235 96.2969C133.625 93.7188 130.203 93.1563 128.797 95.4063Z" fill="#E83B5B"/>
<path d="M94.8594 105.203L108.172 113.359L99.9688 126.672" fill="white"/>
<path d="M153.886 157.938L98.5708 166.749L103.548 197.994L158.863 189.183L153.886 157.938Z" fill="#E83C3B"/>
<path d="M128.703 178L153.875 157.984L98.5626 166.797L128.703 178Z" fill="#EE7375"/>
<path d="M165.125 211.609H196.766C197.703 211.609 198.5 210.812 198.5 209.875C198.5 208.938 197.703 208.141 196.766 208.141H165.125C164.187 208.141 163.391 208.938 163.391 209.875C163.391 210.859 164.141 211.609 165.125 211.609Z" fill="#E2E2E1"/>
<path d="M175.578 204.25L174.078 195.109L178.203 193.844L178.859 203.594L175.578 204.25Z" fill="#D7DDE9"/>
<path d="M179 202.609C179.281 202.656 179.515 202.75 179.75 202.937C181.203 204.156 185.656 206.312 187.906 206.641C190.344 207.016 190.484 208.187 187.015 208.187C183.594 208.187 181.062 207.859 179.562 207.906C178.015 207.953 178.437 208.187 174.687 208.187C171.781 208.187 172.719 204.484 173.75 202.797C174.078 202.281 174.5 202 175.109 202.047L179 202.609Z" fill="#ED9558"/>
<path d="M162.312 195.719L168.031 188.453L171.734 190.656L165.031 197.688L162.312 195.719Z" fill="#D7DDE9"/>
<path d="M165.875 197.125C166.015 197.359 166.156 197.594 166.156 197.875C166.25 199.75 167.703 204.625 169.437 206.172C171.172 207.766 170.047 208.141 167.234 206.828C164.14 205.375 163.437 202.234 162.359 201.156C161.281 200.078 161.375 200.5 158.844 197.734C156.875 195.625 160.203 193.797 162.172 193.375C162.781 193.234 163.25 193.375 163.625 193.891L165.875 197.125Z" fill="#ED9558"/>
<path d="M159.734 41.2188C159.734 41.2188 158.609 48.7188 160.766 52.1875C162.922 55.6562 163.25 56.1719 163.25 56.1719" fill="#ED8C61"/>
<path d="M165.266 59.5001C164.656 59.8751 163.953 60.0626 163.297 60.0626C161.984 60.0626 160.672 59.4063 159.969 58.1407C159.922 58.0938 159.547 57.4376 157.531 54.2501C156.125 52.0001 155.656 48.9532 155.609 46.2813C155.516 43.6563 155.797 41.4063 155.938 40.6563C156.266 38.5469 158.234 37.0469 160.391 37.375C162.5 37.7032 164 39.6719 163.672 41.8282C163.484 42.9532 163.438 44.2657 163.438 45.4844C163.438 46.7501 163.531 47.9688 163.719 48.8594C163.813 49.3751 163.953 49.8438 164.141 50.1251C166.344 53.6407 166.672 54.2032 166.672 54.2032C167.75 56.0313 167.141 58.4219 165.266 59.5001Z" fill="#F6AD86"/>
<path d="M150.875 102.437C151.672 91.2344 147.922 63.4375 146 52.375C145.719 50.6875 146.984 49.1406 148.719 49.1406H171.734C172.953 49.1406 174.078 49.9844 174.406 51.1563C177.031 61.1875 178.719 102.391 178.719 102.391H150.875V102.437Z" fill="#E8E8E8"/>
<path d="M188.891 79.1406C188.516 77.0312 185.937 71.6406 183.078 66.0156C180.031 60.0625 176.609 53.7812 175.016 50.9687C174.125 49.375 172.109 48.8125 170.516 49.6562C168.922 50.5468 168.359 52.5625 169.203 54.1562C171.641 58.5625 174.125 63.2031 176.328 67.375C178.812 72.1562 181.203 75.0625 182.187 77.4062C180.406 78.9531 175.953 79.0937 172.437 78.8593C171.453 78.7656 167.703 78.4843 165.219 80.7812C164.234 81.6718 163.109 83.3125 163.203 85.8906C163.297 87.6718 163.531 88.375 165.125 89.1718C165.781 89.5 166.625 89.5468 167.328 89.5C169.156 89.2656 169.297 88.2812 169.297 86.1718C169.297 84.6718 170.094 83.1718 170.094 83.1718C170.094 83.1718 175.437 84.4843 179.891 85.0468C184.344 85.6093 186.172 84.7187 187.812 82.8906C188.75 81.8125 189.125 80.4531 188.891 79.1406Z" fill="#F6AD86"/>
<path d="M152.094 120.531C152.094 120.531 148.719 114.344 150.875 102.438H178.672C178.672 102.438 179.047 111.484 178.438 120.531H152.094Z" fill="#3A63A9"/>
<path d="M183.031 66.0156L179.797 66.6719L176.328 67.375C174.172 63.2031 171.64 58.5156 169.203 54.1562C168.312 52.5625 168.922 50.5469 170.515 49.6562C172.109 48.7656 174.125 49.375 175.015 50.9687C176.562 53.7812 179.984 60.0625 183.031 66.0156Z" fill="#ED8C61"/>
<path d="M151.766 51.7657C151.344 49.9844 149.516 48.9063 147.781 49.375C139.812 51.3438 134.281 53.125 130.437 54.7657C121.578 58.5157 121.672 61.2813 121.672 62.6875C121.719 64.2813 122.047 67.4219 141.125 74.3594C141.125 74.9219 140.516 77.0782 140.141 77.7813C139.25 79.375 140.187 80.9219 141.125 82.4688C141.453 82.9844 142.203 83.6407 143.094 83.6407C144.266 83.6407 145.719 82.1407 145.906 80.9219C146.609 76.4688 146.516 73.8438 146.281 73.3282C146.281 73.2813 146.234 73.2344 146.234 73.1875C146.141 73.0469 146.094 72.9063 146 72.7657C145.953 72.6719 145.859 72.625 145.812 72.5313C145.719 72.4375 145.672 72.3438 145.578 72.2969C145.437 72.1563 145.297 72.0626 145.156 71.9688C145.109 71.9688 145.109 71.9219 145.062 71.9219C144.828 71.7813 144.594 71.6407 144.359 71.5469C137.891 68.875 131.844 64.5625 129.172 62.6875C130.109 62.1719 131.422 61.5157 133.062 60.9063C137.141 59.2657 143.141 57.3438 149.281 55.8438C151.109 55.3282 152.187 53.5469 151.766 51.7657Z" fill="#F6AD86"/>
<path d="M183.547 64.5625L179.094 65.4063L175.625 66.0625L172.672 66.625C168.875 59.1719 167.984 57.4844 167.844 54.9531C167.703 52.0938 168.453 50.6406 170.328 49.6094C172.203 48.5781 174.547 49.2344 175.578 51.1094C175.672 51.25 179.703 57.0156 183.547 64.5625Z" fill="#E8E8E8"/>
<path d="M195.641 157.281C195.219 160 193.766 162.953 191.703 166.562C188.234 172.562 182.938 179.266 178.156 184.844C174.828 188.734 171.781 192.109 169.859 194.406C169.016 195.391 168.359 196.187 167.984 196.703L164.047 191.641C165.5 189.578 166.859 186.812 168.547 184.234C168.594 184.187 168.641 184.094 168.687 184.047C171.875 179.219 175.297 173.781 178.016 168.812C178.109 168.625 178.203 168.484 178.297 168.297C181.203 163.047 183.359 158.406 183.781 155.687C184.531 150.859 177.266 135.766 170.094 122.453C169.297 120.906 168.453 119.406 167.656 117.953C167.375 117.437 167.234 116.922 167.188 116.359C167 113.922 168.781 111.109 170.984 109.891C173.656 108.391 177.125 107.641 178.625 110.312C181.672 115.844 197.469 145.422 195.641 157.281Z" fill="#3A63A9"/>
<path d="M178.156 184.844C174.828 188.734 171.781 192.109 169.859 194.406C169.531 191.688 169.203 188.734 168.875 185.734C168.828 185.172 168.734 184.562 168.687 184C171.875 179.172 175.297 173.734 178.015 168.766C178.203 173.687 178.203 179.453 178.156 184.844Z" fill="#2D548D"/>
<path d="M177.453 158.781C176.094 147.672 166.766 117.812 165.312 114.531C164.094 111.719 157.344 111.109 154.531 112.375C151.719 113.594 150.453 116.875 151.672 119.687C155.422 128.219 166.062 151.047 167.141 159.109C167.75 163.937 168.594 173.641 170.094 181.937C171.172 187.703 172.25 193.328 173.047 197.406C173.75 200.969 173.75 200.312 173.797 200.641L180.453 199.609C180.453 199.609 179.047 171.906 177.453 158.781Z" fill="#3A63A9"/>
<path d="M149.328 55.7501C143.187 57.2501 137.187 59.1719 133.109 60.8126L130.391 54.7188C134.234 53.1251 139.766 51.2969 147.734 49.3282C149.516 48.9063 151.297 49.9844 151.719 51.7188C152.187 53.5469 151.109 55.3282 149.328 55.7501Z" fill="#ED8C61"/>
<path d="M147.828 49.2344C149.937 48.9063 151.484 49.9376 152.047 52.0001C152.609 54.0625 151.203 55.6563 149.328 56.7344C147.078 58.0469 146.281 58.3282 136.766 61.6094L131.469 54.2969C143.656 49.5626 144.266 49.7501 147.828 49.2344Z" fill="#E8E8E8"/>
<path d="M163.672 48.8594C163.484 48.8594 163.297 48.8594 163.156 48.8594C160.297 48.8594 157.672 47.9219 155.609 46.2813C155.516 43.6563 155.797 41.4063 155.938 40.6563C156.266 38.5469 158.234 37.0469 160.391 37.375C162.5 37.7032 164 39.6719 163.672 41.8282C163.484 42.9532 163.438 44.2657 163.438 45.4844C163.344 46.7032 163.438 47.9219 163.672 48.8594Z" fill="#ED8C61"/>
<path d="M174.687 34.9844C173.141 42.1563 169.156 47.4063 162.266 47.4063C155.422 47.4063 151.109 42.2031 149.844 34.9844C148.719 28.2344 155.422 21.625 162.266 21.625C169.203 21.5781 176.141 28.2813 174.687 34.9844Z" fill="#F6AD86"/>
<path d="M175.625 200.687L175.578 200.5C173.703 188.875 170.844 171.344 169.437 160.281C168.406 152.219 158.422 128.312 154.672 119.781C154.625 119.734 154.625 119.641 154.625 119.594C154.625 119.547 154.625 119.547 154.578 119.5C153.969 117.859 152.141 111.766 153.875 102.156L154.437 102.25C152.703 111.719 154.531 117.672 155.094 119.312C155.094 119.359 155.141 119.406 155.141 119.453C155.141 119.5 155.141 119.547 155.187 119.594C158.937 128.125 168.922 152.125 169.953 160.234C171.406 171.25 174.219 188.828 176.094 200.453L176.141 200.641L175.625 200.687Z" fill="#658BC1"/>
<path d="M166.719 49.1875C166.719 50.875 166.062 53.6875 161.656 53.6875C158.469 53.6875 154.437 52.3281 152.937 49.75L152.609 49.1875H166.719Z" fill="#C8D6DB"/>
<path d="M153.922 49.1875C155.094 51.25 158.609 52.5625 161.656 52.5625C164.703 52.5625 165.594 51.0625 165.594 49.1875H153.922Z" fill="#F6AD86"/>
<path d="M170.609 83.8281C170.609 83.7813 170.797 81.9063 168.828 79.1875L170.656 78.1094C172.953 81.5312 172.719 83.9688 172.719 84.1094L170.609 83.8281Z" fill="#82AACE"/>
<path d="M169.203 78.1561C170.234 77.6874 171.594 77.9218 172.297 78.6718C172.953 79.4218 172.672 80.453 171.594 80.9218C170.562 81.3905 169.203 81.1561 168.5 80.4061C167.844 79.6093 168.125 78.6249 169.203 78.1561Z" fill="#4E7DB0"/>
<path d="M174.406 25.7969C170.656 19.75 161.422 19.2813 159.641 19.375C158.703 19.4219 156.641 19.9844 155.75 21.3906C155.703 20.4063 155.75 19.5156 155.75 19.5156C154.953 20.5 154.813 21.3438 154.953 22C154.391 21.25 154.016 20.4531 154.016 20.4531C153.875 21.4844 154.156 22.0938 154.578 22.4219C152.047 23.0313 148.813 26.5938 149.938 33.9063C150.406 37.0938 157.625 34.6563 159.641 31.4688C161 33.6719 163.719 34.1406 163.719 34.1406C162.781 33.2031 161.938 31.7969 161.281 30.3906C165.125 32.7344 170.234 35.2656 170.844 36.8125C170.844 36.8125 171.969 34.3281 171.125 32.7344C171.125 32.7344 174.172 33.4844 174.547 36.5313C174.5 36.4375 178.391 32.2656 174.406 25.7969Z" fill="#424344"/>
<path d="M165.43 102.141L164.875 102.231L167.91 121.018L168.465 120.929L165.43 102.141Z" fill="#658BC1"/>
<path d="M167.609 117.438L167.515 116.875C167.515 116.875 168.687 116.687 169.297 115.797C169.672 115.281 169.765 114.625 169.672 113.875L167.75 101.969L168.312 101.875L170.234 113.781C170.375 114.719 170.234 115.516 169.765 116.125C169.015 117.25 167.656 117.438 167.609 117.438Z" fill="#658BC1"/>
<path d="M149.469 34.2343C148.906 35.4531 149 36.7656 149.516 37.8906C150.125 39.2031 152.047 39.1093 152.609 37.7968L154.203 34.2343C154.812 32.9218 153.594 31.4687 152.187 31.8437C151.016 32.2187 149.984 33.0625 149.469 34.2343Z" fill="#F6AD86"/>
<defs>
<linearGradient id="paint0_linear_195_1155" x1="220.628" y1="214.258" x2="-17.1864" y2="-4.20919" gradientUnits="userSpaceOnUse">
<stop stop-color="#6FC7DA"/>
<stop offset="0.3693" stop-color="#0D71B9"/>
<stop offset="0.7613" stop-color="#9E1460"/>
<stop offset="1" stop-color="#E7267A"/>
</linearGradient>
<linearGradient id="paint1_linear_195_1155" x1="120.597" y1="82.7444" x2="17.4883" y2="-26.6201" gradientUnits="userSpaceOnUse">
<stop stop-color="#6FC7DA"/>
<stop offset="1" stop-color="#9E1460"/>
</linearGradient>
<linearGradient id="paint2_linear_195_1155" x1="71.5402" y1="184.12" x2="12.8786" y2="177.704" gradientUnits="userSpaceOnUse">
<stop stop-color="#6FC7DA"/>
<stop offset="0.6927" stop-color="#9E1460"/>
<stop offset="1" stop-color="#E7267A"/>
</linearGradient>
</defs>
</svg>
