<svg width="224" height="232" viewBox="0 0 224 232" fill="none" xmlns="http://www.w3.org/2000/svg">
<path d="M5.29316 176.964L88.8931 225.547C90.665 226.58 93.5195 226.58 95.2913 225.563L222.319 152.215C224.09 151.197 224.09 149.54 222.319 148.507L138.719 99.924C136.963 98.9069 134.109 98.9069 132.337 99.924L5.30958 173.256C3.53775 174.29 3.52134 175.947 5.29316 176.964Z" fill="#AABAFD"/>
<path d="M104.083 181.901C103.084 182.478 103.09 183.418 104.082 183.994L124.69 195.97C125.682 196.547 127.305 196.554 128.304 195.977L168.913 172.531C169.912 171.954 169.906 171.014 168.914 170.438L148.306 158.462C147.314 157.885 145.691 157.878 144.693 158.455L104.083 181.901Z" fill="#2E4277"/>
<path d="M3.98071 175.126L3.99713 180.017C3.99713 180.673 4.44002 181.345 5.30954 181.854L88.9095 230.437C90.6813 231.454 93.5358 231.454 95.3077 230.437L222.335 157.105C223.221 156.596 223.664 155.924 223.664 155.234L223.647 150.361C223.647 151.033 223.205 151.706 222.319 152.214L95.2912 225.563C93.5194 226.58 90.6649 226.58 88.8931 225.547L5.29313 176.964C4.40729 176.455 3.98071 175.799 3.98071 175.126Z" fill="#798FFE"/>
<path d="M132.09 3.18879C133.86 2.16682 135.299 2.98719 135.305 5.02123L135.532 94.3907C135.537 96.4127 134.107 98.9021 132.337 99.924L7.14029 172.2C5.37015 173.222 3.93048 172.389 3.92472 170.367L3.69826 80.9978C3.6925 78.9638 5.1228 76.4864 6.89295 75.4644L132.09 3.18879Z" fill="#1B2A4F"/>
<path d="M0.336121 79.0498L0.565801 168.416C0.565801 169.417 0.92676 170.138 1.50094 170.467L4.85873 172.419C4.28446 172.091 3.92359 171.369 3.92359 170.369L3.69391 81.0026C3.69391 78.9682 5.12119 76.4911 6.89302 75.4575L132.09 3.19014C132.976 2.68158 133.78 2.63242 134.371 2.96046L131.013 1.00777C130.439 0.67964 129.619 0.728792 128.733 1.23735L3.53523 73.5212C1.7634 74.5383 0.336121 77.0156 0.336121 79.0498Z" fill="#384E85"/>
<path d="M8.21698 79.9078L8.43485 166.244L131.013 95.4804L130.795 9.14404L8.21698 79.9078Z" fill="#384E85"/>
<path d="M8.21698 79.9078L8.25356 94.3889L130.832 23.6252L130.795 9.14404L8.21698 79.9078Z" fill="#AABAFD"/>
<path d="M110.584 26.2762C111.766 25.5939 112.727 26.118 112.73 27.4759C112.734 28.8337 111.78 30.4871 110.598 31.1694C109.437 31.8399 108.476 31.2923 108.472 29.9345C108.468 28.5766 109.423 26.9467 110.584 26.2762Z" fill="white"/>
<path d="M117.41 22.3355C118.571 21.665 119.532 22.189 119.536 23.5469C119.539 24.9047 118.585 26.5581 117.424 27.2286C116.242 27.9109 115.281 27.3633 115.277 26.0055C115.273 24.6476 116.228 23.0177 117.41 22.3355Z" fill="white"/>
<path d="M124.215 18.4065C125.397 17.7242 126.357 18.2483 126.361 19.6061C126.365 20.964 125.411 22.6173 124.229 23.2996C123.047 23.9819 122.086 23.4343 122.083 22.0765C122.079 20.7186 123.033 19.0887 124.215 18.4065Z" fill="white"/>
<path d="M30.9299 170.967L22.9058 175.63L19.4491 173.634L27.4732 168.971L30.9299 170.967Z" fill="#384E85"/>
<path d="M117.269 120.792L109.234 125.461L105.777 123.466L113.812 118.796L117.269 120.792Z" fill="#384E85"/>
<path d="M138.854 108.248L130.818 112.918L127.362 110.922L135.397 106.252L138.854 108.248Z" fill="#384E85"/>
<path d="M124.452 137.448L116.428 142.112L109.293 137.992L117.317 133.329L124.452 137.448Z" fill="#384E85"/>
<path d="M164.029 135.292L155.994 139.962L148.848 135.836L156.883 131.167L164.029 135.292Z" fill="#384E85"/>
<path d="M174.827 129.018L166.792 133.687L150.65 124.367L158.685 119.698L174.827 129.018Z" fill="#384E85"/>
<path d="M147.85 113.442L133.034 122.052L125.888 117.926L140.704 109.316L147.85 113.442Z" fill="#384E85"/>
<path d="M130.283 123.651L122.248 128.32L115.102 124.195L123.137 119.525L130.283 123.651Z" fill="#384E85"/>
<path d="M156.835 118.63L138.002 129.574L130.867 125.455L149.7 114.51L156.835 118.63Z" fill="#384E85"/>
<path d="M135.25 131.173L127.215 135.843L120.08 131.723L128.115 127.054L135.25 131.173Z" fill="#384E85"/>
<path d="M144.246 136.367L136.211 141.037L129.065 136.911L137.1 132.241L144.246 136.367Z" fill="#384E85"/>
<path d="M119.485 129.926L111.45 134.596L104.304 130.47L112.339 125.8L119.485 129.926Z" fill="#384E85"/>
<path d="M106.471 127.067L98.4469 131.73L94.9902 129.734L103.014 125.071L106.471 127.067Z" fill="#384E85"/>
<path d="M95.6842 133.336L87.6491 138.005L84.1925 136.009L92.2276 131.34L95.6842 133.336Z" fill="#384E85"/>
<path d="M101.077 161.455L93.0418 166.124L85.8959 161.998L93.931 157.329L101.077 161.455Z" fill="#384E85"/>
<path d="M84.8862 139.61L76.8621 144.274L73.4055 142.278L81.4296 137.615L84.8862 139.61Z" fill="#384E85"/>
<path d="M97.9002 142.47L89.876 147.133L82.73 143.007L90.7542 138.344L97.9002 142.47Z" fill="#384E85"/>
<path d="M74.0993 145.879L66.0642 150.549L62.6075 148.553L70.6427 143.883L74.0993 145.879Z" fill="#384E85"/>
<path d="M87.1132 148.738L79.0781 153.408L71.9321 149.282L79.9672 144.613L87.1132 148.738Z" fill="#384E85"/>
<path d="M102.867 149.992L94.8434 154.655L87.7085 150.536L95.7326 145.873L102.867 149.992Z" fill="#384E85"/>
<path d="M63.3124 152.148L55.2773 156.817L51.8207 154.822L59.8558 150.152L63.3124 152.148Z" fill="#384E85"/>
<path d="M76.3264 155.007L68.2912 159.676L61.1453 155.551L69.1804 150.881L76.3264 155.007Z" fill="#384E85"/>
<path d="M111.864 155.186L103.84 159.849L96.6936 155.723L104.718 151.06L111.864 155.186Z" fill="#384E85"/>
<path d="M92.0806 156.261L84.0455 160.93L76.9106 156.811L84.9457 152.141L92.0806 156.261Z" fill="#384E85"/>
<path d="M52.5147 158.423L44.4796 163.092L41.023 161.097L49.0581 156.427L52.5147 158.423Z" fill="#384E85"/>
<path d="M65.5285 161.282L57.4933 165.952L50.3474 161.826L58.3825 157.156L65.5285 161.282Z" fill="#384E85"/>
<path d="M81.2936 162.529L73.2585 167.199L66.1237 163.079L74.1588 158.41L81.2936 162.529Z" fill="#384E85"/>
<path d="M54.7416 167.551L46.7065 172.22L39.5605 168.095L47.5957 163.425L54.7416 167.551Z" fill="#384E85"/>
<path d="M90.2899 167.723L82.2548 172.393L75.1088 168.267L83.1439 163.598L90.2899 167.723Z" fill="#384E85"/>
<path d="M70.496 168.804L62.4609 173.474L55.326 169.355L63.3611 164.685L70.496 168.804Z" fill="#384E85"/>
<path d="M79.4922 173.998L71.457 178.668L64.3111 174.542L72.3462 169.873L79.4922 173.998Z" fill="#384E85"/>
<path d="M121.322 160.111L80.453 183.862L73.3071 179.736L114.176 155.985L121.322 160.111Z" fill="#384E85"/>
<path d="M68.7052 180.267L60.67 184.936L53.524 180.811L61.5591 176.141L68.7052 180.267Z" fill="#384E85"/>
<path d="M59.709 175.073L40.887 186.011L33.7521 181.892L52.5742 170.954L59.709 175.073Z" fill="#384E85"/>
<path d="M57.9073 186.542L49.8831 191.205L42.7372 187.079L50.7613 182.416L57.9073 186.542Z" fill="#384E85"/>
<path d="M77.7013 185.461L58.8793 196.399L51.7334 192.273L70.5554 181.335L77.7013 185.461Z" fill="#384E85"/>
<path d="M41.7277 164.692L33.6925 169.361L30.2359 167.365L38.2711 162.696L41.7277 164.692Z" fill="#384E85"/>
<path d="M128.056 114.523L120.021 119.193L116.564 117.197L124.599 112.528L128.056 114.523Z" fill="#384E85"/>
<path d="M108.698 136.195L100.663 140.864L93.5168 136.739L101.552 132.069L108.698 136.195Z" fill="#384E85"/>
<path d="M131.658 154.105L123.623 158.774L116.477 154.649L124.512 149.979L131.658 154.105Z" fill="#384E85"/>
<path d="M122.662 148.911L114.627 153.58L107.481 149.455L115.516 144.785L122.662 148.911Z" fill="#384E85"/>
<path d="M113.666 143.717L105.63 148.386L98.4955 144.267L106.531 139.598L113.666 143.717Z" fill="#384E85"/>
<path d="M153.243 141.561L145.208 146.231L138.062 142.105L146.097 137.435L153.243 141.561Z" fill="#384E85"/>
<path d="M142.445 147.836L134.42 152.499L127.275 148.374L135.299 143.711L142.445 147.836Z" fill="#384E85"/>
<path d="M43.9435 173.826L31.9019 180.824L24.7559 176.698L36.7976 169.7L43.9435 173.826Z" fill="#384E85"/>
</svg>
